<mxfile host="app.diagrams.net" agent="Mozilla/5.0 (Windows NT 10.0; Win64; x64) AppleWebKit/537.36 (KHTML, like Gecko) Chrome/133.0.0.0 Safari/537.36 OPR/118.0.0.0 (Edition std-2)" version="27.0.1">
  <diagram name="Sayfa -1" id="h-azJLj8p0HbDLK38F_v">
    <mxGraphModel dx="3898" dy="1684" grid="1" gridSize="10" guides="1" tooltips="1" connect="1" arrows="1" fold="1" page="1" pageScale="1" pageWidth="827" pageHeight="1169" math="0" shadow="0">
      <root>
        <mxCell id="0" />
        <mxCell id="1" parent="0" />
        <mxCell id="iJEo4gMadIxdaNtaJDbO-5" value="" style="edgeStyle=orthogonalEdgeStyle;rounded=0;orthogonalLoop=1;jettySize=auto;html=1;" edge="1" parent="1" source="iJEo4gMadIxdaNtaJDbO-1">
          <mxGeometry relative="1" as="geometry">
            <mxPoint x="200.0344827586207" y="120" as="targetPoint" />
          </mxGeometry>
        </mxCell>
        <mxCell id="iJEo4gMadIxdaNtaJDbO-1" value="[ User - Script ]&amp;nbsp;" style="rounded=1;whiteSpace=wrap;html=1;" vertex="1" parent="1">
          <mxGeometry x="40" y="60" width="320" height="40" as="geometry" />
        </mxCell>
        <mxCell id="iJEo4gMadIxdaNtaJDbO-3" value="" style="edgeStyle=orthogonalEdgeStyle;rounded=0;orthogonalLoop=1;jettySize=auto;html=1;" edge="1" parent="1" source="iJEo4gMadIxdaNtaJDbO-2" target="iJEo4gMadIxdaNtaJDbO-1">
          <mxGeometry relative="1" as="geometry" />
        </mxCell>
        <mxCell id="iJEo4gMadIxdaNtaJDbO-2" value="Command Sending Flow" style="rounded=1;whiteSpace=wrap;html=1;fillColor=#fa6800;fontColor=#000000;strokeColor=#C73500;" vertex="1" parent="1">
          <mxGeometry x="40" width="320" height="40" as="geometry" />
        </mxCell>
        <mxCell id="iJEo4gMadIxdaNtaJDbO-13" value="" style="edgeStyle=orthogonalEdgeStyle;rounded=0;orthogonalLoop=1;jettySize=auto;html=1;" edge="1" parent="1" source="iJEo4gMadIxdaNtaJDbO-14">
          <mxGeometry relative="1" as="geometry">
            <mxPoint x="640.0344827586207" y="120" as="targetPoint" />
          </mxGeometry>
        </mxCell>
        <mxCell id="iJEo4gMadIxdaNtaJDbO-14" value="[ Sensor - Algorithm ]&amp;nbsp;" style="rounded=1;whiteSpace=wrap;html=1;" vertex="1" parent="1">
          <mxGeometry x="480" y="60" width="320" height="40" as="geometry" />
        </mxCell>
        <mxCell id="iJEo4gMadIxdaNtaJDbO-15" value="" style="edgeStyle=orthogonalEdgeStyle;rounded=0;orthogonalLoop=1;jettySize=auto;html=1;" edge="1" parent="1" source="iJEo4gMadIxdaNtaJDbO-16" target="iJEo4gMadIxdaNtaJDbO-14">
          <mxGeometry relative="1" as="geometry" />
        </mxCell>
        <mxCell id="iJEo4gMadIxdaNtaJDbO-16" value="Telemetry Sending Flow" style="rounded=1;whiteSpace=wrap;html=1;fillColor=#fa6800;fontColor=#000000;strokeColor=#C73500;" vertex="1" parent="1">
          <mxGeometry x="480" width="320" height="40" as="geometry" />
        </mxCell>
        <mxCell id="iJEo4gMadIxdaNtaJDbO-24" value="" style="edgeStyle=orthogonalEdgeStyle;rounded=0;orthogonalLoop=1;jettySize=auto;html=1;" edge="1" parent="1" source="iJEo4gMadIxdaNtaJDbO-25" target="iJEo4gMadIxdaNtaJDbO-27">
          <mxGeometry relative="1" as="geometry" />
        </mxCell>
        <mxCell id="iJEo4gMadIxdaNtaJDbO-25" value="command_builder \ cmd_takeoff()" style="rounded=1;whiteSpace=wrap;html=1;" vertex="1" parent="1">
          <mxGeometry x="40" y="240" width="320" height="40" as="geometry" />
        </mxCell>
        <mxCell id="iJEo4gMadIxdaNtaJDbO-26" value="" style="edgeStyle=orthogonalEdgeStyle;rounded=0;orthogonalLoop=1;jettySize=auto;html=1;" edge="1" parent="1" source="iJEo4gMadIxdaNtaJDbO-27" target="iJEo4gMadIxdaNtaJDbO-29">
          <mxGeometry relative="1" as="geometry" />
        </mxCell>
        <mxCell id="iJEo4gMadIxdaNtaJDbO-27" value="command_serializer \ serialize_command()" style="rounded=1;whiteSpace=wrap;html=1;" vertex="1" parent="1">
          <mxGeometry x="40" y="300" width="320" height="40" as="geometry" />
        </mxCell>
        <mxCell id="iJEo4gMadIxdaNtaJDbO-28" value="" style="edgeStyle=orthogonalEdgeStyle;rounded=0;orthogonalLoop=1;jettySize=auto;html=1;" edge="1" parent="1" source="iJEo4gMadIxdaNtaJDbO-29" target="iJEo4gMadIxdaNtaJDbO-30">
          <mxGeometry relative="1" as="geometry" />
        </mxCell>
        <mxCell id="iJEo4gMadIxdaNtaJDbO-29" value="frame_codec \ build_mesh_frame(&#39;C&#39;, src, dst, payload)" style="rounded=1;whiteSpace=wrap;html=1;" vertex="1" parent="1">
          <mxGeometry x="40" y="360" width="320" height="40" as="geometry" />
        </mxCell>
        <mxCell id="iJEo4gMadIxdaNtaJDbO-30" value="transmitter \ send_frame()" style="rounded=1;whiteSpace=wrap;html=1;" vertex="1" parent="1">
          <mxGeometry x="40" y="420" width="320" height="40" as="geometry" />
        </mxCell>
        <mxCell id="iJEo4gMadIxdaNtaJDbO-33" value="" style="edgeStyle=orthogonalEdgeStyle;rounded=0;orthogonalLoop=1;jettySize=auto;html=1;" edge="1" parent="1" source="iJEo4gMadIxdaNtaJDbO-31" target="iJEo4gMadIxdaNtaJDbO-32">
          <mxGeometry relative="1" as="geometry" />
        </mxCell>
        <mxCell id="iJEo4gMadIxdaNtaJDbO-31" value="interface_factory \ create_interface()" style="rounded=1;whiteSpace=wrap;html=1;" vertex="1" parent="1">
          <mxGeometry x="40" y="120" width="320" height="40" as="geometry" />
        </mxCell>
        <mxCell id="iJEo4gMadIxdaNtaJDbO-37" value="" style="edgeStyle=orthogonalEdgeStyle;rounded=0;orthogonalLoop=1;jettySize=auto;html=1;entryX=0.5;entryY=0;entryDx=0;entryDy=0;" edge="1" parent="1" source="iJEo4gMadIxdaNtaJDbO-32" target="iJEo4gMadIxdaNtaJDbO-25">
          <mxGeometry relative="1" as="geometry" />
        </mxCell>
        <mxCell id="iJEo4gMadIxdaNtaJDbO-32" value="Interface\n(UART/UDP/MOCK)" style="rounded=1;whiteSpace=wrap;html=1;" vertex="1" parent="1">
          <mxGeometry x="40" y="180" width="320" height="40" as="geometry" />
        </mxCell>
        <mxCell id="iJEo4gMadIxdaNtaJDbO-38" value="" style="edgeStyle=orthogonalEdgeStyle;rounded=0;orthogonalLoop=1;jettySize=auto;html=1;" edge="1" parent="1" source="iJEo4gMadIxdaNtaJDbO-39" target="iJEo4gMadIxdaNtaJDbO-41">
          <mxGeometry relative="1" as="geometry" />
        </mxCell>
        <mxCell id="iJEo4gMadIxdaNtaJDbO-39" value="telemetry_builder \ gather data" style="rounded=1;whiteSpace=wrap;html=1;" vertex="1" parent="1">
          <mxGeometry x="480" y="240" width="320" height="40" as="geometry" />
        </mxCell>
        <mxCell id="iJEo4gMadIxdaNtaJDbO-40" value="" style="edgeStyle=orthogonalEdgeStyle;rounded=0;orthogonalLoop=1;jettySize=auto;html=1;" edge="1" parent="1" source="iJEo4gMadIxdaNtaJDbO-41" target="iJEo4gMadIxdaNtaJDbO-43">
          <mxGeometry relative="1" as="geometry" />
        </mxCell>
        <mxCell id="iJEo4gMadIxdaNtaJDbO-41" value="telemetry_serializer \ serialize_telemetry()" style="rounded=1;whiteSpace=wrap;html=1;" vertex="1" parent="1">
          <mxGeometry x="480" y="300" width="320" height="40" as="geometry" />
        </mxCell>
        <mxCell id="iJEo4gMadIxdaNtaJDbO-42" value="" style="edgeStyle=orthogonalEdgeStyle;rounded=0;orthogonalLoop=1;jettySize=auto;html=1;" edge="1" parent="1" source="iJEo4gMadIxdaNtaJDbO-43" target="iJEo4gMadIxdaNtaJDbO-44">
          <mxGeometry relative="1" as="geometry" />
        </mxCell>
        <mxCell id="iJEo4gMadIxdaNtaJDbO-43" value="frame_codec \&amp;nbsp;build_mesh_frame(&#39;T&#39;, src, dst, payload)&quot;" style="rounded=1;whiteSpace=wrap;html=1;" vertex="1" parent="1">
          <mxGeometry x="480" y="360" width="320" height="40" as="geometry" />
        </mxCell>
        <mxCell id="iJEo4gMadIxdaNtaJDbO-44" value="transmitter \ send_frame()" style="rounded=1;whiteSpace=wrap;html=1;" vertex="1" parent="1">
          <mxGeometry x="480" y="420" width="320" height="40" as="geometry" />
        </mxCell>
        <mxCell id="iJEo4gMadIxdaNtaJDbO-45" value="" style="edgeStyle=orthogonalEdgeStyle;rounded=0;orthogonalLoop=1;jettySize=auto;html=1;" edge="1" parent="1" source="iJEo4gMadIxdaNtaJDbO-46" target="iJEo4gMadIxdaNtaJDbO-47">
          <mxGeometry relative="1" as="geometry" />
        </mxCell>
        <mxCell id="iJEo4gMadIxdaNtaJDbO-46" value="interface_factory \ create_interface()" style="rounded=1;whiteSpace=wrap;html=1;" vertex="1" parent="1">
          <mxGeometry x="480" y="120" width="320" height="40" as="geometry" />
        </mxCell>
        <mxCell id="iJEo4gMadIxdaNtaJDbO-48" value="" style="edgeStyle=orthogonalEdgeStyle;rounded=0;orthogonalLoop=1;jettySize=auto;html=1;entryX=0.5;entryY=0;entryDx=0;entryDy=0;" edge="1" parent="1" source="iJEo4gMadIxdaNtaJDbO-47" target="iJEo4gMadIxdaNtaJDbO-39">
          <mxGeometry relative="1" as="geometry" />
        </mxCell>
        <mxCell id="iJEo4gMadIxdaNtaJDbO-47" value="Interface\n(UART/UDP/MOCK)" style="rounded=1;whiteSpace=wrap;html=1;" vertex="1" parent="1">
          <mxGeometry x="480" y="180" width="320" height="40" as="geometry" />
        </mxCell>
        <mxCell id="iJEo4gMadIxdaNtaJDbO-58" value="" style="edgeStyle=orthogonalEdgeStyle;rounded=0;orthogonalLoop=1;jettySize=auto;html=1;entryX=0.5;entryY=0;entryDx=0;entryDy=0;" edge="1" parent="1" source="iJEo4gMadIxdaNtaJDbO-57">
          <mxGeometry relative="1" as="geometry">
            <mxPoint x="419.99999999999955" y="580" as="targetPoint" />
          </mxGeometry>
        </mxCell>
        <mxCell id="iJEo4gMadIxdaNtaJDbO-57" value="Message Receiving Flow" style="rounded=1;whiteSpace=wrap;html=1;fillColor=#fa6800;fontColor=#000000;strokeColor=#C73500;" vertex="1" parent="1">
          <mxGeometry x="40" y="520" width="760" height="40" as="geometry" />
        </mxCell>
        <mxCell id="iJEo4gMadIxdaNtaJDbO-83" value="" style="edgeStyle=orthogonalEdgeStyle;rounded=0;orthogonalLoop=1;jettySize=auto;html=1;" edge="1" parent="1" source="iJEo4gMadIxdaNtaJDbO-84" target="iJEo4gMadIxdaNtaJDbO-85">
          <mxGeometry relative="1" as="geometry" />
        </mxCell>
        <mxCell id="iJEo4gMadIxdaNtaJDbO-84" value="frame_codec \ parse_mesh_frame()" style="rounded=1;whiteSpace=wrap;html=1;" vertex="1" parent="1">
          <mxGeometry x="40" y="700" width="760" height="40" as="geometry" />
        </mxCell>
        <mxCell id="iJEo4gMadIxdaNtaJDbO-85" value="frame_router \ route_frame()" style="rounded=1;whiteSpace=wrap;html=1;" vertex="1" parent="1">
          <mxGeometry x="40" y="760" width="760" height="40" as="geometry" />
        </mxCell>
        <mxCell id="iJEo4gMadIxdaNtaJDbO-120" value="" style="edgeStyle=orthogonalEdgeStyle;rounded=0;orthogonalLoop=1;jettySize=auto;html=1;" edge="1" parent="1" source="iJEo4gMadIxdaNtaJDbO-86" target="iJEo4gMadIxdaNtaJDbO-88">
          <mxGeometry relative="1" as="geometry" />
        </mxCell>
        <mxCell id="iJEo4gMadIxdaNtaJDbO-86" value="frame_router \ route_frame()" style="rounded=1;whiteSpace=wrap;html=1;" vertex="1" parent="1">
          <mxGeometry x="40" y="820" width="760" height="40" as="geometry" />
        </mxCell>
        <mxCell id="iJEo4gMadIxdaNtaJDbO-87" value="" style="edgeStyle=orthogonalEdgeStyle;rounded=0;orthogonalLoop=1;jettySize=auto;html=1;entryX=0.5;entryY=0;entryDx=0;entryDy=0;" edge="1" parent="1" source="iJEo4gMadIxdaNtaJDbO-88" target="iJEo4gMadIxdaNtaJDbO-92">
          <mxGeometry relative="1" as="geometry" />
        </mxCell>
        <mxCell id="iJEo4gMadIxdaNtaJDbO-88" value="Command Reception" style="rounded=1;whiteSpace=wrap;html=1;fillColor=#fa6800;fontColor=#000000;strokeColor=#C73500;" vertex="1" parent="1">
          <mxGeometry x="260" y="970" width="320" height="40" as="geometry" />
        </mxCell>
        <mxCell id="iJEo4gMadIxdaNtaJDbO-89" value="Telemetry Reception" style="rounded=1;whiteSpace=wrap;html=1;fillColor=#fa6800;fontColor=#000000;strokeColor=#C73500;" vertex="1" parent="1">
          <mxGeometry x="600" y="970" width="320" height="40" as="geometry" />
        </mxCell>
        <mxCell id="iJEo4gMadIxdaNtaJDbO-90" value="ACK Reception" style="rounded=1;whiteSpace=wrap;html=1;fillColor=#fa6800;fontColor=#000000;strokeColor=#C73500;" vertex="1" parent="1">
          <mxGeometry x="-80" y="970" width="320" height="40" as="geometry" />
        </mxCell>
        <mxCell id="iJEo4gMadIxdaNtaJDbO-91" value="" style="edgeStyle=orthogonalEdgeStyle;rounded=0;orthogonalLoop=1;jettySize=auto;html=1;entryX=0.5;entryY=0;entryDx=0;entryDy=0;" edge="1" parent="1" source="iJEo4gMadIxdaNtaJDbO-92" target="iJEo4gMadIxdaNtaJDbO-95">
          <mxGeometry relative="1" as="geometry" />
        </mxCell>
        <mxCell id="iJEo4gMadIxdaNtaJDbO-92" value="command_handler \ handle_command()" style="rounded=1;whiteSpace=wrap;html=1;" vertex="1" parent="1">
          <mxGeometry x="260" y="1030" width="320" height="40" as="geometry" />
        </mxCell>
        <mxCell id="iJEo4gMadIxdaNtaJDbO-93" value="telemetry_handler \ handle_command()" style="rounded=1;whiteSpace=wrap;html=1;" vertex="1" parent="1">
          <mxGeometry x="600" y="1030" width="320" height="40" as="geometry" />
        </mxCell>
        <mxCell id="iJEo4gMadIxdaNtaJDbO-94" value="telemetry_handler \ handle_command()" style="rounded=1;whiteSpace=wrap;html=1;" vertex="1" parent="1">
          <mxGeometry x="-80" y="1030" width="320" height="40" as="geometry" />
        </mxCell>
        <mxCell id="iJEo4gMadIxdaNtaJDbO-95" value="command_serializer \ deserialize_command()" style="rounded=1;whiteSpace=wrap;html=1;" vertex="1" parent="1">
          <mxGeometry x="260" y="1090" width="320" height="40" as="geometry" />
        </mxCell>
        <mxCell id="iJEo4gMadIxdaNtaJDbO-96" value="command_definitions \ lookup" style="rounded=1;whiteSpace=wrap;html=1;" vertex="1" parent="1">
          <mxGeometry x="260" y="1150" width="320" height="40" as="geometry" />
        </mxCell>
        <mxCell id="iJEo4gMadIxdaNtaJDbO-97" value="handle_takeoff() \ execute" style="rounded=1;whiteSpace=wrap;html=1;" vertex="1" parent="1">
          <mxGeometry x="260" y="1210" width="320" height="40" as="geometry" />
        </mxCell>
        <mxCell id="iJEo4gMadIxdaNtaJDbO-98" value="ack_dispatcher \ send_ack()" style="rounded=1;whiteSpace=wrap;html=1;" vertex="1" parent="1">
          <mxGeometry x="260" y="1270" width="320" height="40" as="geometry" />
        </mxCell>
        <mxCell id="iJEo4gMadIxdaNtaJDbO-99" value="frame_codec \ build_mesh_frame(&#39;A&#39;, src, dst, ack)" style="rounded=1;whiteSpace=wrap;html=1;" vertex="1" parent="1">
          <mxGeometry x="260" y="1330" width="320" height="40" as="geometry" />
        </mxCell>
        <mxCell id="iJEo4gMadIxdaNtaJDbO-100" value="transmitter \ send_frame()" style="rounded=1;whiteSpace=wrap;html=1;" vertex="1" parent="1">
          <mxGeometry x="260" y="1390" width="320" height="40" as="geometry" />
        </mxCell>
        <mxCell id="iJEo4gMadIxdaNtaJDbO-101" value="" style="edgeStyle=orthogonalEdgeStyle;rounded=0;orthogonalLoop=1;jettySize=auto;html=1;entryX=0.5;entryY=0;entryDx=0;entryDy=0;" edge="1" parent="1">
          <mxGeometry relative="1" as="geometry">
            <mxPoint x="419.89" y="1130" as="sourcePoint" />
            <mxPoint x="419.89" y="1150" as="targetPoint" />
          </mxGeometry>
        </mxCell>
        <mxCell id="iJEo4gMadIxdaNtaJDbO-102" value="" style="edgeStyle=orthogonalEdgeStyle;rounded=0;orthogonalLoop=1;jettySize=auto;html=1;entryX=0.5;entryY=0;entryDx=0;entryDy=0;" edge="1" parent="1">
          <mxGeometry relative="1" as="geometry">
            <mxPoint x="419.89" y="1190" as="sourcePoint" />
            <mxPoint x="419.89" y="1210" as="targetPoint" />
          </mxGeometry>
        </mxCell>
        <mxCell id="iJEo4gMadIxdaNtaJDbO-103" value="" style="edgeStyle=orthogonalEdgeStyle;rounded=0;orthogonalLoop=1;jettySize=auto;html=1;entryX=0.5;entryY=0;entryDx=0;entryDy=0;" edge="1" parent="1">
          <mxGeometry relative="1" as="geometry">
            <mxPoint x="419.89" y="1250" as="sourcePoint" />
            <mxPoint x="419.89" y="1270" as="targetPoint" />
          </mxGeometry>
        </mxCell>
        <mxCell id="iJEo4gMadIxdaNtaJDbO-104" value="" style="edgeStyle=orthogonalEdgeStyle;rounded=0;orthogonalLoop=1;jettySize=auto;html=1;entryX=0.5;entryY=0;entryDx=0;entryDy=0;" edge="1" parent="1">
          <mxGeometry relative="1" as="geometry">
            <mxPoint x="419.89" y="1310" as="sourcePoint" />
            <mxPoint x="419.89" y="1330" as="targetPoint" />
          </mxGeometry>
        </mxCell>
        <mxCell id="iJEo4gMadIxdaNtaJDbO-105" value="" style="edgeStyle=orthogonalEdgeStyle;rounded=0;orthogonalLoop=1;jettySize=auto;html=1;entryX=0.5;entryY=0;entryDx=0;entryDy=0;" edge="1" parent="1">
          <mxGeometry relative="1" as="geometry">
            <mxPoint x="419.9" y="1370" as="sourcePoint" />
            <mxPoint x="419.9" y="1390" as="targetPoint" />
          </mxGeometry>
        </mxCell>
        <mxCell id="iJEo4gMadIxdaNtaJDbO-106" value="interface_factory \ create_interface()" style="rounded=1;whiteSpace=wrap;html=1;" vertex="1" parent="1">
          <mxGeometry x="40" y="580" width="760" height="40" as="geometry" />
        </mxCell>
        <mxCell id="iJEo4gMadIxdaNtaJDbO-109" value="" style="edgeStyle=orthogonalEdgeStyle;rounded=0;orthogonalLoop=1;jettySize=auto;html=1;" edge="1" parent="1" source="iJEo4gMadIxdaNtaJDbO-107">
          <mxGeometry relative="1" as="geometry">
            <mxPoint x="420" y="700" as="targetPoint" />
          </mxGeometry>
        </mxCell>
        <mxCell id="iJEo4gMadIxdaNtaJDbO-107" value="Interface\n(UART/UDP/MOCK)" style="rounded=1;whiteSpace=wrap;html=1;" vertex="1" parent="1">
          <mxGeometry x="40" y="640" width="760" height="40" as="geometry" />
        </mxCell>
        <mxCell id="iJEo4gMadIxdaNtaJDbO-108" value="" style="edgeStyle=orthogonalEdgeStyle;rounded=0;orthogonalLoop=1;jettySize=auto;html=1;entryX=0.5;entryY=0;entryDx=0;entryDy=0;" edge="1" parent="1">
          <mxGeometry relative="1" as="geometry">
            <mxPoint x="419.86" y="620" as="sourcePoint" />
            <mxPoint x="419.85999999999956" y="640" as="targetPoint" />
          </mxGeometry>
        </mxCell>
        <mxCell id="iJEo4gMadIxdaNtaJDbO-112" value="telemetry_serializer \ deserialize_telemetry()" style="rounded=1;whiteSpace=wrap;html=1;" vertex="1" parent="1">
          <mxGeometry x="600" y="1090" width="320" height="40" as="geometry" />
        </mxCell>
        <mxCell id="iJEo4gMadIxdaNtaJDbO-113" value="telemetry_cache \ set_device_data()" style="rounded=1;whiteSpace=wrap;html=1;" vertex="1" parent="1">
          <mxGeometry x="600" y="1150" width="320" height="40" as="geometry" />
        </mxCell>
        <mxCell id="iJEo4gMadIxdaNtaJDbO-114" value="Data used by [ GCS - Algorithm ]&amp;nbsp;" style="rounded=1;whiteSpace=wrap;html=1;" vertex="1" parent="1">
          <mxGeometry x="600" y="1210" width="320" height="40" as="geometry" />
        </mxCell>
        <mxCell id="iJEo4gMadIxdaNtaJDbO-116" value="ack_handler \ handle_ack()" style="rounded=1;whiteSpace=wrap;html=1;" vertex="1" parent="1">
          <mxGeometry x="-80" y="1090" width="320" height="40" as="geometry" />
        </mxCell>
        <mxCell id="iJEo4gMadIxdaNtaJDbO-117" value="ack_tracker \ register_ack()" style="rounded=1;whiteSpace=wrap;html=1;" vertex="1" parent="1">
          <mxGeometry x="-80" y="1150" width="320" height="40" as="geometry" />
        </mxCell>
        <mxCell id="iJEo4gMadIxdaNtaJDbO-118" value="[ User - Script ] \ get_ack_status()" style="rounded=1;whiteSpace=wrap;html=1;" vertex="1" parent="1">
          <mxGeometry x="-80" y="1210" width="320" height="40" as="geometry" />
        </mxCell>
        <mxCell id="iJEo4gMadIxdaNtaJDbO-119" value="" style="endArrow=classic;html=1;rounded=0;exitX=0.5;exitY=1;exitDx=0;exitDy=0;entryX=0.5;entryY=0;entryDx=0;entryDy=0;" edge="1" parent="1" source="iJEo4gMadIxdaNtaJDbO-86" target="iJEo4gMadIxdaNtaJDbO-90">
          <mxGeometry width="50" height="50" relative="1" as="geometry">
            <mxPoint x="210" y="980" as="sourcePoint" />
            <mxPoint x="260" y="930" as="targetPoint" />
            <Array as="points">
              <mxPoint x="420" y="900" />
              <mxPoint x="80" y="900" />
            </Array>
          </mxGeometry>
        </mxCell>
        <mxCell id="iJEo4gMadIxdaNtaJDbO-121" value="" style="endArrow=classic;html=1;rounded=0;exitX=0.5;exitY=1;exitDx=0;exitDy=0;entryX=0.5;entryY=0;entryDx=0;entryDy=0;" edge="1" parent="1" source="iJEo4gMadIxdaNtaJDbO-86" target="iJEo4gMadIxdaNtaJDbO-89">
          <mxGeometry width="50" height="50" relative="1" as="geometry">
            <mxPoint x="430" y="870" as="sourcePoint" />
            <mxPoint x="780" y="930" as="targetPoint" />
            <Array as="points">
              <mxPoint x="420" y="900" />
              <mxPoint x="760" y="900" />
            </Array>
          </mxGeometry>
        </mxCell>
        <mxCell id="iJEo4gMadIxdaNtaJDbO-122" value="Response -&amp;gt; &#39;C&#39;" style="rounded=1;whiteSpace=wrap;html=1;fillColor=#647687;fontColor=#ffffff;strokeColor=#314354;" vertex="1" parent="1">
          <mxGeometry x="355" y="930" width="130" height="20" as="geometry" />
        </mxCell>
        <mxCell id="iJEo4gMadIxdaNtaJDbO-123" value="Response -&amp;gt; &#39;A&#39;" style="rounded=1;whiteSpace=wrap;html=1;fillColor=#647687;fontColor=#ffffff;strokeColor=#314354;" vertex="1" parent="1">
          <mxGeometry x="15" y="930" width="130" height="20" as="geometry" />
        </mxCell>
        <mxCell id="iJEo4gMadIxdaNtaJDbO-124" value="Response -&amp;gt; &#39;T&#39;" style="rounded=1;whiteSpace=wrap;html=1;fillColor=#647687;fontColor=#ffffff;strokeColor=#314354;" vertex="1" parent="1">
          <mxGeometry x="695" y="930" width="130" height="20" as="geometry" />
        </mxCell>
        <mxCell id="iJEo4gMadIxdaNtaJDbO-125" value="" style="edgeStyle=orthogonalEdgeStyle;rounded=0;orthogonalLoop=1;jettySize=auto;html=1;entryX=0.5;entryY=0;entryDx=0;entryDy=0;" edge="1" parent="1">
          <mxGeometry relative="1" as="geometry">
            <mxPoint x="759.8199999999999" y="1010" as="sourcePoint" />
            <mxPoint x="759.8199999999999" y="1030" as="targetPoint" />
          </mxGeometry>
        </mxCell>
        <mxCell id="iJEo4gMadIxdaNtaJDbO-126" value="" style="edgeStyle=orthogonalEdgeStyle;rounded=0;orthogonalLoop=1;jettySize=auto;html=1;entryX=0.5;entryY=0;entryDx=0;entryDy=0;" edge="1" parent="1">
          <mxGeometry relative="1" as="geometry">
            <mxPoint x="759.92" y="1070" as="sourcePoint" />
            <mxPoint x="759.92" y="1090" as="targetPoint" />
          </mxGeometry>
        </mxCell>
        <mxCell id="iJEo4gMadIxdaNtaJDbO-127" value="" style="edgeStyle=orthogonalEdgeStyle;rounded=0;orthogonalLoop=1;jettySize=auto;html=1;entryX=0.5;entryY=0;entryDx=0;entryDy=0;" edge="1" parent="1">
          <mxGeometry relative="1" as="geometry">
            <mxPoint x="759.92" y="1130" as="sourcePoint" />
            <mxPoint x="759.92" y="1150" as="targetPoint" />
          </mxGeometry>
        </mxCell>
        <mxCell id="iJEo4gMadIxdaNtaJDbO-128" value="" style="edgeStyle=orthogonalEdgeStyle;rounded=0;orthogonalLoop=1;jettySize=auto;html=1;entryX=0.5;entryY=0;entryDx=0;entryDy=0;" edge="1" parent="1">
          <mxGeometry relative="1" as="geometry">
            <mxPoint x="759.92" y="1190" as="sourcePoint" />
            <mxPoint x="759.92" y="1210" as="targetPoint" />
          </mxGeometry>
        </mxCell>
        <mxCell id="iJEo4gMadIxdaNtaJDbO-130" value="" style="edgeStyle=orthogonalEdgeStyle;rounded=0;orthogonalLoop=1;jettySize=auto;html=1;entryX=0.5;entryY=0;entryDx=0;entryDy=0;" edge="1" parent="1">
          <mxGeometry relative="1" as="geometry">
            <mxPoint x="79.86000000000001" y="1190" as="sourcePoint" />
            <mxPoint x="79.86000000000001" y="1210" as="targetPoint" />
          </mxGeometry>
        </mxCell>
        <mxCell id="iJEo4gMadIxdaNtaJDbO-131" value="" style="edgeStyle=orthogonalEdgeStyle;rounded=0;orthogonalLoop=1;jettySize=auto;html=1;entryX=0.5;entryY=0;entryDx=0;entryDy=0;" edge="1" parent="1">
          <mxGeometry relative="1" as="geometry">
            <mxPoint x="79.86000000000001" y="1130" as="sourcePoint" />
            <mxPoint x="79.86000000000001" y="1150" as="targetPoint" />
          </mxGeometry>
        </mxCell>
        <mxCell id="iJEo4gMadIxdaNtaJDbO-132" value="" style="edgeStyle=orthogonalEdgeStyle;rounded=0;orthogonalLoop=1;jettySize=auto;html=1;entryX=0.5;entryY=0;entryDx=0;entryDy=0;" edge="1" parent="1">
          <mxGeometry relative="1" as="geometry">
            <mxPoint x="79.86000000000001" y="1070" as="sourcePoint" />
            <mxPoint x="79.86000000000001" y="1090" as="targetPoint" />
          </mxGeometry>
        </mxCell>
        <mxCell id="iJEo4gMadIxdaNtaJDbO-133" value="" style="edgeStyle=orthogonalEdgeStyle;rounded=0;orthogonalLoop=1;jettySize=auto;html=1;entryX=0.5;entryY=0;entryDx=0;entryDy=0;" edge="1" parent="1">
          <mxGeometry relative="1" as="geometry">
            <mxPoint x="79.86000000000001" y="1010" as="sourcePoint" />
            <mxPoint x="79.86000000000001" y="1030" as="targetPoint" />
          </mxGeometry>
        </mxCell>
      </root>
    </mxGraphModel>
  </diagram>
</mxfile>
